<svg version="1.1" viewBox="0.0 0.0 720.0 720.0" fill="none" stroke="none" stroke-linecap="square" stroke-miterlimit="10" xmlns:xlink="http://www.w3.org/1999/xlink" xmlns="http://www.w3.org/2000/svg"><clipPath id="p.0"><path d="m0 0l720.0 0l0 720.0l-720.0 0l0 -720.0z" clip-rule="nonzero"/></clipPath><g clip-path="url(#p.0)"><path fill="#000000" fill-opacity="0.0" d="m0 0l720.0 0l0 720.0l-720.0 0z" fill-rule="evenodd"/><path fill="#ff0000" d="m0.832021 0.097112864l720.0 0l0 720.0l-720.0 0z" fill-rule="evenodd"/><path fill="#ffffff" d="m194.21584 253.75424c-18.023117 0 -34.716324 3.4736328 -50.079636 10.420868c-15.3632965 6.947235 -28.721848 16.335907 -40.075607 28.166077c-11.353752 11.83017 -20.266052 25.625397 -26.736923 41.38571c-6.4311523 15.720581 -9.6467285 32.47336 -9.6467285 50.2583c0 18.777374 3.2155762 36.284424 9.6467285 52.52112c6.4708405 16.236664 15.244217 30.32965 26.320091 42.2789c11.115562 11.949249 24.176369 21.337921 39.182396 28.166107c15.006027 6.8280945 31.044205 10.242218 48.114548 10.242218c27.55075 0 51.70729 -10.381195 72.469574 -31.143494l0 29.297485l41.68341 0l0 -133.56561l-94.02585 0l0 36.979156l52.342438 0l0 18.281158c-20.246216 23.66034 -42.9339 35.49048 -68.063034 35.49048c-10.9964905 0 -21.19899 -2.2429504 -30.607529 -6.7289124c-9.368835 -4.525635 -17.46733 -10.678894 -24.295471 -18.459808c-6.8281403 -7.8206177 -12.187424 -17.03064 -16.07788 -27.630157c-3.8904572 -10.639191 -5.8356705 -22.05249 -5.8356705 -34.23996c0 -11.71106 1.766571 -22.806793 5.2997437 -33.2872c3.5331726 -10.480408 8.515327 -19.75 14.94648 -27.808777c6.4708557 -8.058807 14.271606 -14.390717 23.402252 -18.995758c9.170349 -4.6447144 19.253754 -6.9670715 30.250229 -6.9670715c13.89447 0 26.756775 3.4140625 38.58693 10.242218c11.830154 6.828125 21.040207 16.693207 27.630127 29.595215l37.693726 -27.808807c-8.81308 -17.308533 -21.93341 -31.083923 -39.361053 -41.32614c-17.427628 -10.242218 -38.348724 -15.363312 -62.76329 -15.363312z" fill-rule="evenodd"/><path fill="#ffffff" d="m313.51218 255.60022l104.982635 259.7473l42.45752 0l45.018066 -109.03192l44.958557 109.03192l42.45752 0l105.756714 -259.7473l-54.903015 0l-73.54138 201.92645l-32.92993 -83.00958l44.303528 -118.2023l-46.864075 0l-29.237915 85.98697l-29.297485 -85.98697l-46.447205 0l43.52939 118.2023l-32.215332 83.00958l-73.89871 -201.92645z" fill-rule="evenodd"/><path stroke="#ffffff" stroke-width="1.0" stroke-linejoin="round" stroke-linecap="butt" d="m194.21584 253.75424c-18.023117 0 -34.716324 3.4736328 -50.079636 10.420868c-15.3632965 6.947235 -28.721848 16.335907 -40.075607 28.166077c-11.353752 11.83017 -20.266052 25.625397 -26.736923 41.38571c-6.4311523 15.720581 -9.6467285 32.47336 -9.6467285 50.2583c0 18.777374 3.2155762 36.284424 9.6467285 52.52112c6.4708405 16.236664 15.244217 30.32965 26.320091 42.2789c11.115562 11.949249 24.176369 21.337921 39.182396 28.166107c15.006027 6.8280945 31.044205 10.242218 48.114548 10.242218c27.55075 0 51.70729 -10.381195 72.469574 -31.143494l0 29.297485l41.68341 0l0 -133.56561l-94.02585 0l0 36.979156l52.342438 0l0 18.281158c-20.246216 23.66034 -42.9339 35.49048 -68.063034 35.49048c-10.9964905 0 -21.19899 -2.2429504 -30.607529 -6.7289124c-9.368835 -4.525635 -17.46733 -10.678894 -24.295471 -18.459808c-6.8281403 -7.8206177 -12.187424 -17.03064 -16.07788 -27.630157c-3.8904572 -10.639191 -5.8356705 -22.05249 -5.8356705 -34.23996c0 -11.71106 1.766571 -22.806793 5.2997437 -33.2872c3.5331726 -10.480408 8.515327 -19.75 14.94648 -27.808777c6.4708557 -8.058807 14.271606 -14.390717 23.402252 -18.995758c9.170349 -4.6447144 19.253754 -6.9670715 30.250229 -6.9670715c13.89447 0 26.756775 3.4140625 38.58693 10.242218c11.830154 6.828125 21.040207 16.693207 27.630127 29.595215l37.693726 -27.808807c-8.81308 -17.308533 -21.93341 -31.083923 -39.361053 -41.32614c-17.427628 -10.242218 -38.348724 -15.363312 -62.76329 -15.363312z" fill-rule="evenodd"/><path stroke="#ffffff" stroke-width="1.0" stroke-linejoin="round" stroke-linecap="butt" d="m313.51218 255.60022l104.982635 259.7473l42.45752 0l45.018066 -109.03192l44.958557 109.03192l42.45752 0l105.756714 -259.7473l-54.903015 0l-73.54138 201.92645l-32.92993 -83.00958l44.303528 -118.2023l-46.864075 0l-29.237915 85.98697l-29.297485 -85.98697l-46.447205 0l43.52939 118.2023l-32.215332 83.00958l-73.89871 -201.92645z" fill-rule="evenodd"/><path fill="#000000" d="m147.38684 202.82545c-18.023117 0 -34.716324 3.4736328 -50.079636 10.420868c-15.363312 6.947235 -28.721855 16.335922 -40.075615 28.166092c-11.353752 11.830154 -20.266052 25.625397 -26.736923 41.38568c-6.4311523 15.720612 -9.6467285 32.47339 -9.6467285 50.2583c0 18.777405 3.2155762 36.284454 9.6467285 52.52115c6.4708443 16.236664 15.244217 30.32962 26.320091 42.2789c11.115562 11.949249 24.176369 21.337921 39.182396 28.166077c15.006027 6.8281555 31.044205 10.242218 48.114555 10.242218c27.55075 0 51.707275 -10.381165 72.469574 -31.143463l0 29.297485l41.683395 0l0 -133.56561l-94.02585 0l0 36.979156l52.342453 0l0 18.281158c-20.246231 23.660309 -42.933914 35.490448 -68.06305 35.490448c-10.996475 0 -21.198982 -2.2429504 -30.607521 -6.728882c-9.368835 -4.525635 -17.467323 -10.678925 -24.295464 -18.459808c-6.828148 -7.8206177 -12.187424 -17.03067 -16.077888 -27.630157c-3.8904572 -10.639191 -5.8356705 -22.05252 -5.8356705 -34.23996c0 -11.71106 1.766571 -22.806793 5.2997437 -33.2872c3.5331726 -10.480408 8.51532 -19.75 14.94648 -27.808807c6.4708557 -8.058777 14.271606 -14.390686 23.402252 -18.995728c9.1703415 -4.6447296 19.253746 -6.967087 30.250237 -6.967087c13.894455 0 26.756775 3.4140625 38.586914 10.242203c11.830154 6.8281555 21.040207 16.693237 27.630142 29.595245l37.69371 -27.808807c-8.813065 -17.308548 -21.93341 -31.083939 -39.36104 -41.32614c-17.427643 -10.242218 -38.34874 -15.363327 -62.76329 -15.363327z" fill-rule="evenodd"/><path fill="#000000" d="m266.68317 204.67145l104.982635 259.7473l42.45752 0l45.018066 -109.03195l44.958527 109.03195l42.45752 0l105.756775 -259.7473l-54.903015 0l-73.54144 201.92645l-32.92987 -83.00958l44.303528 -118.2023l-46.864075 0l-29.237946 85.98697l-29.297455 -85.98697l-46.447235 0l43.52939 118.2023l-32.2153 83.00958l-73.89874 -201.92645z" fill-rule="evenodd"/><path stroke="#000000" stroke-width="1.0" stroke-linejoin="round" stroke-linecap="butt" d="m147.38684 202.82545c-18.023117 0 -34.716324 3.4736328 -50.079636 10.420868c-15.363312 6.947235 -28.721855 16.335922 -40.075615 28.166092c-11.353752 11.830154 -20.266052 25.625397 -26.736923 41.38568c-6.4311523 15.720612 -9.6467285 32.47339 -9.6467285 50.2583c0 18.777405 3.2155762 36.284454 9.6467285 52.52115c6.4708443 16.236664 15.244217 30.32962 26.320091 42.2789c11.115562 11.949249 24.176369 21.337921 39.182396 28.166077c15.006027 6.8281555 31.044205 10.242218 48.114555 10.242218c27.55075 0 51.707275 -10.381165 72.469574 -31.143463l0 29.297485l41.683395 0l0 -133.56561l-94.02585 0l0 36.979156l52.342453 0l0 18.281158c-20.246231 23.660309 -42.933914 35.490448 -68.06305 35.490448c-10.996475 0 -21.198982 -2.2429504 -30.607521 -6.728882c-9.368835 -4.525635 -17.467323 -10.678925 -24.295464 -18.459808c-6.828148 -7.8206177 -12.187424 -17.03067 -16.077888 -27.630157c-3.8904572 -10.639191 -5.8356705 -22.05252 -5.8356705 -34.23996c0 -11.71106 1.766571 -22.806793 5.2997437 -33.2872c3.5331726 -10.480408 8.51532 -19.75 14.94648 -27.808807c6.4708557 -8.058777 14.271606 -14.390686 23.402252 -18.995728c9.1703415 -4.6447296 19.253746 -6.967087 30.250237 -6.967087c13.894455 0 26.756775 3.4140625 38.586914 10.242203c11.830154 6.8281555 21.040207 16.693237 27.630142 29.595245l37.69371 -27.808807c-8.813065 -17.308548 -21.93341 -31.083939 -39.36104 -41.32614c-17.427643 -10.242218 -38.34874 -15.363327 -62.76329 -15.363327z" fill-rule="evenodd"/><path stroke="#000000" stroke-width="1.0" stroke-linejoin="round" stroke-linecap="butt" d="m266.68317 204.67145l104.982635 259.7473l42.45752 0l45.018066 -109.03195l44.958527 109.03195l42.45752 0l105.756775 -259.7473l-54.903015 0l-73.54144 201.92645l-32.92987 -83.00958l44.303528 -118.2023l-46.864075 0l-29.237946 85.98697l-29.297455 -85.98697l-46.447235 0l43.52939 118.2023l-32.2153 83.00958l-73.89874 -201.92645z" fill-rule="evenodd"/></g></svg>