<?xml version="1.0" encoding="UTF-8" standalone="no"?>
<svg
   xmlns:dc="http://purl.org/dc/elements/1.1/"
   xmlns:cc="http://creativecommons.org/ns#"
   xmlns:rdf="http://www.w3.org/1999/02/22-rdf-syntax-ns#"
   xmlns:svg="http://www.w3.org/2000/svg"
   xmlns="http://www.w3.org/2000/svg"
   xmlns:sodipodi="http://sodipodi.sourceforge.net/DTD/sodipodi-0.dtd"
   xmlns:inkscape="http://www.inkscape.org/namespaces/inkscape"
   version="1.1"
   viewBox="0 0 720 360"
   stroke-miterlimit="10"
   id="svg861"
   sodipodi:docname="LogoLandBetter.svg"
   width="720"
   height="360"
   style="fill:none;stroke:none;stroke-linecap:square;stroke-miterlimit:10"
   inkscape:version="0.92.3 (2405546, 2018-03-11)">
  <metadata
     id="metadata867">
    <rdf:RDF>
      <cc:Work
         rdf:about="">
        <dc:format>image/svg+xml</dc:format>
        <dc:type
           rdf:resource="http://purl.org/dc/dcmitype/StillImage" />
        <dc:title></dc:title>
      </cc:Work>
    </rdf:RDF>
  </metadata>
  <defs
     id="defs865" />
  <sodipodi:namedview
     pagecolor="#ffffff"
     bordercolor="#666666"
     borderopacity="1"
     objecttolerance="10"
     gridtolerance="10"
     guidetolerance="10"
     inkscape:pageopacity="0"
     inkscape:pageshadow="2"
     inkscape:window-width="1366"
     inkscape:window-height="705"
     id="namedview863"
     showgrid="false"
     inkscape:zoom="0.74444444"
     inkscape:cx="373.60307"
     inkscape:cy="198.80597"
     inkscape:window-x="1912"
     inkscape:window-y="131"
     inkscape:window-maximized="1"
     inkscape:current-layer="svg861" />
  <clipPath
     id="p.0">
    <path
       d="M 0,0 H 720 V 720 H 0 Z"
       id="path842"
       inkscape:connector-curvature="0"
       style="clip-rule:nonzero" />
  </clipPath>
  <g
     clip-path="url(#p.0)"
     id="g859"
     transform="translate(0,-180)">
    <path
       d="M 0,0 H 720 V 720 H 0 Z"
       id="path845"
       inkscape:connector-curvature="0"
       style="fill:#000000;fill-opacity:0;fill-rule:evenodd" />
    <path
       d="m 207.6742,238.4616 c -22.15175,0 -41.48491,5.0417 -57.99948,15.12512 -16.47487,10.04372 -29.099,24.57338 -37.87234,43.58898 -8.73365,18.97589 -13.100499,41.44522 -13.100499,67.40805 v 17.6857 c 0.23819,25.24823 4.962319,47.22137 14.172359,65.91934 9.24975,18.69799 22.35026,32.9696 39.30149,42.81485 16.99095,9.80551 36.74093,14.70831 59.24998,14.70831 21.43718,0 40.96883,-3.1759 58.59496,-9.52765 17.62613,-6.39148 31.26254,-15.36334 40.90927,-26.91559 V 365.47696 H 208.56742 v 39.48017 h 48.76956 v 44.83947 c -8.57486,8.57486 -22.92586,12.86231 -43.05298,12.86231 -20.00804,0 -35.19271,-6.9671 -45.55402,-20.90128 -10.3613,-13.93417 -15.54194,-34.53769 -15.54194,-61.81057 v -16.6138 c 0.11909,-27.0347 4.94245,-47.40003 14.47009,-61.09601 9.52763,-13.69599 23.40225,-20.54398 41.62385,-20.54398 14.29146,0 25.50628,3.45377 33.64446,10.3613 8.17789,6.90756 13.45778,17.80478 15.8397,32.69174 h 52.16379 C 307.71436,296.63974 297.4126,275.24225 280.02466,260.5538 262.63675,245.82567 238.51991,238.4616 207.6742,238.4616 Z"
       id="path847"
       inkscape:connector-curvature="0"
       style="fill:#000000;fill-rule:evenodd" />
    <path
       d="m 337.3691,242.03445 57.70175,260.1046 h 53.95023 l 42.33841,-173.99857 42.33844,173.99857 h 53.95025 L 645.3499,242.03445 H 591.9356 L 556.92156,427.10888 514.22582,242.03445 H 468.85045 L 425.97609,426.75161 390.7834,242.03445 Z"
       id="path849"
       inkscape:connector-curvature="0"
       style="fill:#000000;fill-rule:evenodd" />
    <path
       d="m 207.6742,238.4616 c -22.15175,0 -41.48491,5.0417 -57.99948,15.12512 -16.47487,10.04372 -29.099,24.57338 -37.87234,43.58898 -8.73365,18.97589 -13.100499,41.44522 -13.100499,67.40805 v 17.6857 c 0.23819,25.24823 4.962319,47.22137 14.172359,65.91934 9.24975,18.69799 22.35026,32.9696 39.30149,42.81485 16.99095,9.80551 36.74093,14.70831 59.24998,14.70831 21.43718,0 40.96883,-3.1759 58.59496,-9.52765 17.62613,-6.39148 31.26254,-15.36334 40.90927,-26.91559 V 365.47696 H 208.56742 v 39.48017 h 48.76956 v 44.83947 c -8.57486,8.57486 -22.92586,12.86231 -43.05298,12.86231 -20.00804,0 -35.19271,-6.9671 -45.55402,-20.90128 -10.3613,-13.93417 -15.54194,-34.53769 -15.54194,-61.81057 v -16.6138 c 0.11909,-27.0347 4.94245,-47.40003 14.47009,-61.09601 9.52763,-13.69599 23.40225,-20.54398 41.62385,-20.54398 14.29146,0 25.50628,3.45377 33.64446,10.3613 8.17789,6.90756 13.45778,17.80478 15.8397,32.69174 h 52.16379 C 307.71436,296.63974 297.4126,275.24225 280.02466,260.5538 262.63675,245.82567 238.51991,238.4616 207.6742,238.4616 Z"
       id="path851"
       inkscape:connector-curvature="0"
       style="fill-rule:evenodd;stroke:#ffffff;stroke-width:1;stroke-linecap:butt;stroke-linejoin:round" />
    <path
       d="m 337.3691,242.03445 57.70175,260.1046 h 53.95023 l 42.33841,-173.99857 42.33844,173.99857 h 53.95025 L 645.3499,242.03445 H 591.9356 L 556.92156,427.10888 514.22582,242.03445 H 468.85045 L 425.97609,426.75161 390.7834,242.03445 Z"
       id="path853"
       inkscape:connector-curvature="0"
       style="fill-rule:evenodd;stroke:#ffffff;stroke-width:1;stroke-linecap:butt;stroke-linejoin:round" />
    <path
       d="m 183.67328,214.45932 c -22.15175,0 -41.48492,5.0417 -57.99948,15.12512 -16.47487,10.04373 -29.098999,24.57337 -37.872345,43.58896 -8.733658,18.97589 -13.100494,41.44525 -13.100494,67.40808 v 17.68567 c 0.23819,25.24826 4.962318,47.22138 14.172356,65.91937 9.249756,18.698 22.350253,32.96961 39.301493,42.81485 16.99093,9.80551 36.74093,14.70828 59.24997,14.70828 21.43718,0 40.96884,-3.1759 58.59495,-9.52765 17.62612,-6.39145 31.26256,-15.36331 40.90929,-26.91558 V 341.47467 H 184.5665 v 39.48016 h 48.76957 v 44.83948 c -8.57487,8.57489 -22.92587,12.8623 -43.05301,12.8623 -20.00802,0 -35.19268,-6.96707 -45.554,-20.90124 -10.36129,-13.93418 -15.54194,-34.53772 -15.54194,-61.81058 v -16.61383 c 0.11909,-27.03467 4.94246,-47.40002 14.47009,-61.09601 9.52764,-13.69598 23.40225,-20.54398 41.62386,-20.54398 14.29144,0 25.50625,3.45377 33.64445,10.36133 8.17789,6.90753 13.45778,17.80478 15.83969,32.69171 h 52.16381 C 283.71344,272.63748 273.41168,251.23998 256.02374,236.55152 238.63582,221.82337 214.519,214.45931 183.67328,214.45931 Z"
       id="path855"
       inkscape:connector-curvature="0"
       style="fill:#ff0000;fill-rule:evenodd" />
    <path
       d="m 313.3682,218.03218 57.70175,260.1046 h 53.95023 l 42.33841,-173.99854 42.33844,173.99854 h 53.95025 L 621.349,218.03218 H 567.9347 L 532.92066,403.10663 490.22492,218.03218 H 444.84955 L 401.97519,402.74933 366.7825,218.03218 Z"
       id="path857"
       inkscape:connector-curvature="0"
       style="fill:#ff0000;fill-rule:evenodd" />
  </g>
</svg>
